<svg width="24" height="24" viewBox="0 0 24 24" fill="none" xmlns="http://www.w3.org/2000/svg">
<path fill-rule="evenodd" clip-rule="evenodd" d="M11.9879 5.9791C11.9777 5.98004 11.9616 5.98326 11.9375 6.00256L8.83612 8.48367C8.49922 8.75319 8.08063 8.90002 7.64919 8.90002H5.83998C4.25053 8.90002 2.89998 10.253 2.89998 12C2.89998 13.7471 4.25053 15.1 5.83997 15.1H7.64919C8.08063 15.1 8.49922 15.2469 8.83612 15.5164L11.9375 17.9975C11.9616 18.0168 11.9777 18.02 11.9879 18.0209C12.0021 18.0222 12.0219 18.0198 12.0433 18.0095C12.0647 17.9992 12.079 17.9853 12.0868 17.9734C12.0925 17.9648 12.1 17.9503 12.1 17.9194V6.08064C12.1 6.04975 12.0925 6.03522 12.0868 6.02663C12.079 6.01477 12.0647 6.00079 12.0433 5.99051C12.0219 5.98024 12.0021 5.97779 11.9879 5.9791ZM10.8131 4.59699C12.0571 3.60176 13.9 4.48748 13.9 6.08064V17.9194C13.9 19.5126 12.0571 20.3983 10.8131 19.403L7.71166 16.9219C7.69393 16.9077 7.6719 16.9 7.64919 16.9H5.83997C3.18787 16.9 1.09998 14.6712 1.09998 12C1.09998 9.3288 3.18787 7.10002 5.83998 7.10002H7.64919C7.6719 7.10002 7.69393 7.09229 7.71166 7.07811L10.8131 4.59699ZM16.8803 10.3927C16.6693 9.88318 16.3599 9.42018 15.9699 9.03017L17.2427 7.75738C17.7998 8.31453 18.2418 8.97597 18.5433 9.70392C18.8448 10.4319 19 11.2121 19 12C19 12.788 18.8448 13.5682 18.5433 14.2961C18.2418 15.0241 17.7998 15.6855 17.2427 16.2427L15.9699 14.9699C16.3599 14.5799 16.6693 14.1169 16.8803 13.6073C17.0914 13.0977 17.2 12.5516 17.2 12C17.2 11.4485 17.0914 10.9023 16.8803 10.3927ZM18.7272 6.27281C19.4793 7.02491 20.0759 7.9178 20.483 8.90048C20.89 9.88315 21.0995 10.9364 21.0995 12C21.0995 13.0637 20.89 14.1169 20.483 15.0996C20.0759 16.0822 19.4793 16.9751 18.7272 17.7272L20 19C20.9193 18.0808 21.6484 16.9895 22.1459 15.7884C22.6434 14.5873 22.8995 13.3 22.8995 12C22.8995 10.7 22.6434 9.41271 22.1459 8.21165C21.6484 7.01058 20.9193 5.91927 20 5.00002L18.7272 6.27281Z" fill="currentColor"/>
</svg>
