<svg width="24" height="24" viewBox="0 0 24 24" fill="none" xmlns="http://www.w3.org/2000/svg">
<path d="M4.32173 17.9233V17.1648L5.91335 15.7713C6.03267 15.6634 6.13423 15.5646 6.21804 15.4751C6.30185 15.3842 6.36577 15.2933 6.4098 15.2024C6.45384 15.1101 6.47585 15.0099 6.47585 14.902C6.47585 14.7812 6.44957 14.6783 6.39702 14.593C6.34446 14.5064 6.27202 14.4396 6.17969 14.3928C6.08736 14.3459 5.98153 14.3224 5.86222 14.3224C5.74148 14.3224 5.63565 14.3473 5.54474 14.397C5.45384 14.4453 5.38281 14.5156 5.33168 14.608C5.28196 14.7003 5.2571 14.8125 5.2571 14.9446H4.25781C4.25781 14.6477 4.32457 14.3913 4.4581 14.1754C4.59162 13.9595 4.77912 13.7933 5.0206 13.6768C5.26349 13.5589 5.54545 13.5 5.86648 13.5C6.19744 13.5 6.48509 13.5554 6.7294 13.6662C6.97372 13.777 7.16264 13.9318 7.29616 14.1307C7.43111 14.3281 7.49858 14.5575 7.49858 14.8189C7.49858 14.9851 7.4652 15.1499 7.39844 15.3132C7.33168 15.4766 7.21165 15.657 7.03835 15.8544C6.86648 16.0518 6.62216 16.2884 6.3054 16.5639L5.78338 17.0455V17.0732H7.55185V17.9233H4.32173Z" fill="currentColor"/>
<path d="M11.5631 17.6761L8.23075 14.3494L8.87279 13.7045L12.2023 17.0369L11.5631 17.6761ZM8.87279 17.6761L8.23075 17.0369L11.5631 13.7045L12.2023 14.3494L8.87279 17.6761Z" fill="currentColor"/>
<path d="M9 11.1V7.1236C9 6.18365 9.7744 5.5 10.628 5.5C10.87 5.5 11.118 5.555 11.3573 5.67435L19.0969 9.54194C20.3008 10.1436 20.3008 11.8563 19.0969 12.458L14.8025 14.604C14.1983 12.5219 12.2769 11 10 11C9.65753 11 9.32311 11.0344 9 11.1Z" fill="currentColor"/>
</svg>
