<svg width="32" height="32" viewBox="0 0 32 32" fill="none" xmlns="http://www.w3.org/2000/svg">
<path fill-rule="evenodd" clip-rule="evenodd" d="M3.41264 16.0087L6.70784 12.7063L5.29209 11.2937L0.58728 16.0087L5.27473 20.7063L6.69048 19.2937L3.41264 16.0087Z" fill="currentColor"/>
<path fill-rule="evenodd" clip-rule="evenodd" d="M9.41264 16.0087L12.7078 12.7063L11.2921 11.2937L6.58728 16.0087L11.2747 20.7063L12.6905 19.2937L9.41264 16.0087Z" fill="currentColor"/>
<path fill-rule="evenodd" clip-rule="evenodd" d="M23 24C27.4182 24 31 20.4183 31 16C31 11.5817 27.4182 8 23 8C18.5817 8 15 11.5817 15 16C15 20.4183 18.5817 24 23 24ZM19.8284 12.4399H21.2159V19.4218H19.7397V13.8411H19.6988L18.1 14.8434V13.5343L19.8284 12.4399ZM27.691 17.0934C27.6944 18.5047 26.6376 19.5172 25.0831 19.5172C23.6376 19.5172 22.5842 18.6547 22.5569 17.4479H23.9887C24.0228 17.9899 24.4967 18.3581 25.0831 18.3581C25.7751 18.3581 26.2694 17.857 26.2694 17.1309C26.2694 16.3979 25.7649 15.8899 25.0626 15.8865C24.6501 15.8865 24.2342 16.0672 24.0194 16.357L22.7069 16.1218L23.0376 12.4399H27.3058V13.6468H24.2547L24.074 15.3956H24.1149C24.3603 15.0513 24.8887 14.7956 25.5024 14.7956C26.7603 14.7956 27.6944 15.757 27.691 17.0934Z" fill="currentColor"/>
</svg>
