<svg width="24" height="24" viewBox="0 0 24 24" fill="none" xmlns="http://www.w3.org/2000/svg">
<path fill-rule="evenodd" clip-rule="evenodd" d="M7.29292 5.29289L1.29292 11.2929L0.585815 12L1.29292 12.7071L7.29292 18.7071L8.70714 17.2929L4.31424 12.9H9.00003V11.1H4.31424L8.70714 6.70711L7.29292 5.29289ZM15.75 13.25C16.4404 13.25 17 12.6904 17 12C17 11.3096 16.4404 10.75 15.75 10.75C15.0597 10.75 14.5 11.3096 14.5 12C14.5 12.6904 15.0597 13.25 15.75 13.25ZM13 12C13 12.6904 12.4404 13.25 11.75 13.25C11.0597 13.25 10.5 12.6904 10.5 12C10.5 11.3096 11.0597 10.75 11.75 10.75C12.4404 10.75 13 11.3096 13 12Z" fill="currentColor"/>
</svg>
