<svg width="24" height="24" viewBox="0 0 24 24" fill="none" xmlns="http://www.w3.org/2000/svg">
<path fill-rule="evenodd" clip-rule="evenodd" d="M7 1C5.34315 1 4 2.34315 4 4V16C4 18.2091 5.79086 20 8 20H12.5V18H8C6.89543 18 6 17.1046 6 16V6.82929C6.31278 6.93985 6.64936 7 7 7H18V13H20V6C20 5.44772 19.5523 5 19 5C18.4477 5 18 4.55228 18 4C18 3.44772 18.4477 3 19 3C19.5523 3 20 2.55228 20 2C20 1.44772 19.5523 1 19 1H7ZM16.1707 3H7C6.44772 3 6 3.44772 6 4C6 4.55228 6.44772 5 7 5H16.1707C16.0602 4.68722 16 4.35064 16 4C16 3.64936 16.0602 3.31278 16.1707 3ZM20 15V23H18V15H20ZM16.5 20.25V17.75H14.5V20.25H16.5ZM23.5 17.75V20.25H21.5V17.75H23.5Z" fill="currentColor"/>
</svg>
