<svg width="24" height="24" viewBox="0 0 24 24" fill="none" xmlns="http://www.w3.org/2000/svg">
	<path d="M3 7H20V5H3V7Z" fill="currentColor" />
	<path d="M3 13H16V11H3V13Z" fill="currentColor" />
	<path d="M12 19H3V17H12V19Z" fill="currentColor" />
	<path fill-rule="evenodd" clip-rule="evenodd"
		d="M20 11C20 12.1046 20.8954 13 22 13V15C21.2714 15 20.5883 14.8052 20 14.4649V19C20 20.6569 18.6569 22 17 22C15.3431 22 14 20.6569 14 19C14 17.3431 15.3431 16 17 16C17.3506 16 17.6872 16.0602 18 16.1707V11H20ZM17 18C17.5523 18 18 18.4477 18 19C18 19.5523 17.5523 20 17 20C16.4477 20 16 19.5523 16 19C16 18.4477 16.4477 18 17 18Z"
		fill="currentColor" />
</svg>