<svg width="24" height="24" viewBox="0 0 24 24" fill="none" xmlns="http://www.w3.org/2000/svg">
<path fill-rule="evenodd" clip-rule="evenodd" d="M5 4C5 3.44772 5.44772 3 6 3H10C11.8638 3 13.4299 4.27477 13.874 6H20C20.3385 6 20.654 6.17125 20.8385 6.45509C21.0229 6.73892 21.0513 7.09681 20.9138 7.40614L19.0943 11.5L20.9138 15.5939C21.0513 15.9032 21.0229 16.2611 20.8385 16.5449C20.654 16.8287 20.3385 17 20 17H16C14.1362 17 12.5701 15.7252 12.126 14H7V21H5V13V5V4ZM12 12V7C12 5.89543 11.1046 5 10 5H7V12H12ZM14 8V13C14 14.1046 14.8954 15 16 15H18.4612L17.0862 11.9061C16.9713 11.6476 16.9713 11.3524 17.0862 11.0939L18.4612 8H14Z" fill="#0D131A"/>
</svg>
