<svg width="24" height="24" viewBox="0 0 24 24" fill="none" xmlns="http://www.w3.org/2000/svg">
<path d="M12 6H21V8H12V6Z" fill="currentColor"/>
<path d="M21 12H8V14H21V12Z" fill="currentColor"/>
<path d="M21 18H4V20H21V18Z" fill="currentColor"/>
<path fill-rule="evenodd" clip-rule="evenodd" d="M5.51839 3.68473C5.26948 3.56033 5.00341 3.5 4.74 3.5C3.83795 3.5 3 4.22075 3 5.23786V8.76214C3 9.77925 3.83795 10.5 4.74 10.5C5.00343 10.5 5.26953 10.4397 5.51846 10.3152M5.51846 10.3152L9.03639 8.55716C10.3214 7.91522 10.3205 6.08452 9.03686 5.44272L5.51839 3.68473M5 5.66147L7.67865 6.99985L5 8.33849V5.66147Z" fill="currentColor"/>
</svg>
