<svg width="24" height="24" viewBox="0 0 24 24" xmlns="http://www.w3.org/2000/svg">
<path fill-rule="evenodd" clip-rule="evenodd" d="M5.57944 19.6622C3.39278 17.8278 2 15.0772 2 12C2 6.47667 6.47722 2 12 2C17.5233 2 22 6.47667 22 12C22 15.0994 20.5872 17.8672 18.3728 19.7011C18.3703 19.7036 18.3673 19.706 18.3641 19.7087C18.3616 19.7108 18.3588 19.7131 18.3561 19.7156C18.3211 19.7439 18.2689 19.7394 18.2394 19.705C18.2328 19.6983 18.2278 19.6917 18.2228 19.6856C17.9711 19.3917 17.7794 19.1678 17.6483 19.0144C17.647 19.0129 17.6456 19.0112 17.6441 19.0095C17.6388 19.0031 17.6324 18.9955 17.625 18.9872C17.6247 18.9869 17.6246 18.9867 17.6244 18.9864C17.6243 18.9861 17.6242 18.9858 17.6239 18.9856C17.5944 18.95 17.6 18.8972 17.6356 18.8683H17.6361C17.6417 18.8636 17.6467 18.8594 17.6512 18.8556C17.6558 18.8518 17.66 18.8483 17.6639 18.845C19.6322 17.215 20.8889 14.7556 20.8889 12C20.8889 7.09056 16.9094 3.11111 12 3.11111C7.09056 3.11111 3.11111 7.09056 3.11111 12C3.11111 14.7322 4.34667 17.1728 6.28611 18.8028C6.29899 18.8138 6.31415 18.8264 6.3319 18.8411L6.34333 18.8506C6.34376 18.851 6.34419 18.8514 6.34462 18.8516C6.34474 18.8516 6.34487 18.8517 6.345 18.8517C6.39167 18.8922 6.39722 18.9622 6.35667 19.0083C6.34389 19.0239 6.33222 19.0378 6.32222 19.0483C6.20389 19.1872 6.03444 19.3856 5.81278 19.6433C5.80992 19.6467 5.8069 19.6503 5.80369 19.6542C5.7963 19.6631 5.78785 19.6732 5.77778 19.6844C5.73833 19.7306 5.67 19.7367 5.62278 19.6983C5.6083 19.6858 5.5955 19.6753 5.58437 19.6662L5.57944 19.6622ZM7.39 17.5528C5.79611 16.2283 4.77778 14.2344 4.77778 12C4.77778 8.01111 8.01111 4.77778 12 4.77778C15.9889 4.77778 19.2222 8.01111 19.2222 12C19.2222 14.2344 18.2044 16.2283 16.6106 17.5528C16.6039 17.5583 16.5965 17.5643 16.5883 17.5708C16.576 17.5807 16.562 17.592 16.5467 17.605C16.5111 17.6333 16.46 17.6283 16.4306 17.5944H16.4311C16.4139 17.575 16.4006 17.5594 16.39 17.5472C16.2951 17.4361 16.2099 17.3366 16.1345 17.2485C16.0392 17.1371 15.9595 17.044 15.8956 16.9689C15.8847 16.9565 15.872 16.9418 15.8572 16.9247C15.845 16.9105 15.8313 16.8947 15.8161 16.8772C15.8156 16.8756 15.815 16.875 15.8144 16.8744C15.7861 16.8389 15.7917 16.7861 15.8272 16.7578C15.8469 16.7421 15.8642 16.7277 15.8792 16.7152C15.8897 16.7066 15.899 16.6988 15.9072 16.6922C17.2522 15.5711 18.1111 13.8878 18.1111 12C18.1111 8.625 15.375 5.88889 12 5.88889C8.625 5.88889 5.88889 8.625 5.88889 12C5.88889 13.9006 6.75944 15.5928 8.11944 16.7139C8.12686 16.7204 8.13582 16.7277 8.14594 16.736C8.15402 16.7426 8.16285 16.7499 8.17222 16.7578C8.17333 16.7578 8.17389 16.7583 8.175 16.7589C8.21 16.7889 8.21389 16.8417 8.18389 16.8772C8.15104 16.9145 8.12425 16.9461 8.10352 16.9706L8.09556 16.98L8.09545 16.9801C7.98212 17.1123 7.81883 17.3029 7.60611 17.5517L7.58722 17.5739C7.54722 17.62 7.47889 17.6261 7.43167 17.5883H7.43222C7.41556 17.5744 7.40167 17.5628 7.39 17.5528ZM9.06333 15.33C8.14056 14.5156 7.55556 13.3278 7.55556 12C7.55556 9.54556 9.54556 7.55556 12 7.55556C14.4544 7.55556 16.4444 9.54556 16.4444 12C16.4444 13.3317 15.8567 14.5228 14.9283 15.3372C14.8878 15.3728 14.8311 15.4194 14.7583 15.4778C14.7111 15.515 14.6433 15.5083 14.6039 15.4633C14.5844 15.4404 14.5666 15.4195 14.5506 15.4005C14.53 15.3762 14.5122 15.3552 14.4972 15.3378L14.4583 15.2923C14.3514 15.1675 14.206 14.9977 14.0217 14.7833C14.0206 14.7817 14.0189 14.78 14.0167 14.7778C14.0161 14.7767 14.015 14.7756 14.0144 14.7739C13.9817 14.7317 13.9894 14.6711 14.0322 14.6383C14.8222 14.0294 15.3333 13.075 15.3333 12C15.3333 10.1594 13.8411 8.66667 12 8.66667C10.1594 8.66667 8.66667 10.1594 8.66667 12C8.66667 13.0783 9.18056 14.0339 9.97389 14.6428C9.97515 14.6432 9.9761 14.6443 9.97696 14.6452C9.97724 14.6455 9.97751 14.6458 9.97778 14.6461C10.0156 14.6778 10.02 14.735 9.98722 14.7728C9.985 14.7756 9.98222 14.7783 9.98 14.7817C9.865 14.915 9.705 15.1022 9.5 15.3422C9.48759 15.3563 9.47286 15.3735 9.45567 15.3936C9.43821 15.414 9.41822 15.4373 9.39556 15.4633C9.35722 15.5083 9.28833 15.515 9.24222 15.4778C9.16556 15.4167 9.10611 15.3672 9.06333 15.33ZM5.71831 21.3283L11.6522 14.4967C11.7444 14.3906 11.8722 14.3372 12 14.3372C12.1272 14.3372 12.255 14.3906 12.3472 14.4967L18.2816 21.3283C18.5083 21.5889 18.3261 22 17.9833 22H6.01665C5.67387 22 5.4922 21.5889 5.71831 21.3283Z" fill="currentColor"/>
</svg>
