<svg width="32" height="32" viewBox="0 0 32 32" fill="none" xmlns="http://www.w3.org/2000/svg">
<path fill-rule="evenodd" clip-rule="evenodd" d="M28.5873 16.0087L25.2921 12.7063L26.7079 11.2937L31.4127 16.0087L26.7252 20.7063L25.3095 19.2937L28.5873 16.0087Z" fill="#0D131A"/>
<path fill-rule="evenodd" clip-rule="evenodd" d="M22.5873 16.0087L19.2921 12.7063L20.7079 11.2937L25.4127 16.0087L20.7252 20.7063L19.3095 19.2937L22.5873 16.0087Z" fill="#0D131A"/>
<path fill-rule="evenodd" clip-rule="evenodd" d="M9 24C13.4183 24 17 20.4183 17 16C17 11.5817 13.4183 8 9 8C4.58172 8 1 11.5817 1 16C1 20.4183 4.58172 24 9 24ZM5.82841 12.4399H7.21591V19.4218H5.73977V13.8411H5.69886L4.1 14.8434V13.5343L5.82841 12.4399ZM13.6911 17.0934C13.6945 18.5047 12.6376 19.5172 11.0831 19.5172C9.63765 19.5172 8.58424 18.6547 8.55697 17.4479H9.98878C10.0229 17.9899 10.4967 18.3581 11.0831 18.3581C11.7751 18.3581 12.2695 17.857 12.2695 17.1309C12.2695 16.3979 11.7649 15.8899 11.0626 15.8865C10.6501 15.8865 10.2342 16.0672 10.0195 16.357L8.70697 16.1218L9.03765 12.4399H13.3058V13.6468H10.2547L10.074 15.3956H10.1149C10.3604 15.0513 10.8888 14.7956 11.5024 14.7956C12.7604 14.7956 13.6945 15.757 13.6911 17.0934Z" fill="#0D131A"/>
</svg>
