<svg width="24" height="24" viewBox="0 0 24 24" fill="none" xmlns="http://www.w3.org/2000/svg">
<path fill-rule="evenodd" clip-rule="evenodd" d="M17.2929 3.29289L17.295 3.29078C17.4758 3.11106 17.7249 3 18 3C18.1356 3 18.2649 3.02699 18.3828 3.07588C18.4999 3.12432 18.6096 3.19595 18.705 3.29078L18.7092 3.29502C18.9023 3.48924 18.9992 3.74301 19 3.997L19 4V4.00069V15C19 16.8536 17.2132 18 15.5 18C13.7868 18 12 16.8536 12 15C12 13.1464 13.7868 12 15.5 12C16.0098 12 16.5262 12.1015 17 12.293V5.96795C15.4237 6.88763 13.036 7.80342 10 7.97234V18C10 19.8536 8.21323 21 6.5 21C4.78677 21 3 19.8536 3 18C3 16.1464 4.78677 15 6.5 15C7.00983 15 7.52617 15.1015 8 15.293V7C8 6.44772 8.44772 6 9 6C13.5402 6 16.4842 4.10156 17.2929 3.29289ZM8 18C8 17.6444 7.54819 17 6.5 17C5.45181 17 5 17.6444 5 18C5 18.3556 5.45181 19 6.5 19C7.54819 19 8 18.3556 8 18ZM17 15C17 14.6444 16.5482 14 15.5 14C14.4518 14 14 14.6444 14 15C14 15.3556 14.4518 16 15.5 16C16.5482 16 17 15.3556 17 15Z" fill="#0D131A"/>
</svg>
