<svg width="24" height="24" viewBox="0 0 24 24" fill="none" xmlns="http://www.w3.org/2000/svg">
<path fill-rule="evenodd" clip-rule="evenodd" d="M7.00001 7C7.00001 4.23858 9.23859 2 12 2C14.7614 2 17 4.23858 17 7C17 9.76142 14.7614 12 12 12C9.23859 12 7.00001 9.76142 7.00001 7ZM12 4C10.3432 4 9.00001 5.34315 9.00001 7C9.00001 8.65685 10.3432 10 12 10C13.6569 10 15 8.65685 15 7C15 5.34315 13.6569 4 12 4ZM3.17944 15.2633C3.60305 14.4941 4.42046 14 5.50001 14H18.5C19.6198 14 20.4547 14.498 20.8665 15.3048C21.236 16.0288 21.1917 16.8684 20.9076 17.4824C19.0288 21.5424 15.1413 23 12 23C8.85878 23 4.97126 21.5424 3.09248 17.4824L4.00001 17.0624L3.09248 17.4824C2.78571 16.8195 2.79102 15.9686 3.17944 15.2633ZM4.93134 16.2281C4.85667 16.3637 4.86197 16.544 4.90754 16.6424L4.90754 16.6425C6.37272 19.8086 9.40933 21 12 21C14.5907 21 17.6273 19.8086 19.0925 16.6425C19.1114 16.6017 19.1321 16.5266 19.1321 16.434C19.1322 16.3438 19.1126 16.268 19.0851 16.214C19.061 16.1669 19.0265 16.126 18.9644 16.0908C18.8987 16.0537 18.7601 16 18.5 16H5.50001C5.27175 16 5.14161 16.0486 5.07282 16.0872C5.00506 16.1252 4.96174 16.1729 4.93134 16.2281Z" fill="#0D131A"/>
</svg>
