<svg width="24" height="24" viewBox="0 0 24 24" fill="none" xmlns="http://www.w3.org/2000/svg">
<path fill-rule="evenodd" clip-rule="evenodd" d="M2 6C2 4.89543 2.89543 4 4 4H8C9.6356 4 11.0878 4.78534 12 5.99952C12.9122 4.78534 14.3644 4 16 4H20C21.1046 4 22 4.89543 22 6V18C22 19.1046 21.1046 20 20 20H16C15.034 20 14.1748 20.4555 13.6244 21.1676C13.2787 21.6149 12.7092 22 12 22C11.2908 22 10.7213 21.6149 10.3756 21.1676C9.82523 20.4555 8.96604 20 8 20H4C2.89543 20 2 19.1046 2 18V6ZM13 9H11C11 7.34315 9.65685 6 8 6H4V18H8C9.12578 18 10.1648 18.3726 11 18.9998V15H9V13H11V11H13V13H15V15H13V18.9998C13.8352 18.3726 14.8742 18 16 18H20V6H16C14.3431 6 13 7.34315 13 9Z" fill="#0D131A"/>
</svg>
