<svg width="24" height="24" viewBox="0 0 24 24" fill="none" xmlns="http://www.w3.org/2000/svg">
<path fill-rule="evenodd" clip-rule="evenodd" d="M18.7079 3.54366L18.0015 2.83578L16.5858 4.24846L17.2921 4.95634L18.8324 6.5H18.3852L18.1868 6.49996C16.4529 6.49945 15.3217 6.49912 14.3187 6.8671C13.3996 7.20427 12.577 7.76119 11.9226 8.48928C11.2085 9.28392 10.7886 10.3343 10.1452 11.9444L10.1452 11.9444L10.0715 12.1286C9.32725 13.9893 9.03626 14.6771 8.58986 15.1738C8.1536 15.6592 7.60521 16.0305 6.99251 16.2553C6.36555 16.4853 5.61886 16.5 3.61484 16.5H2V18.5H3.61484L3.8132 18.5H3.81321C5.54711 18.5005 6.67831 18.5009 7.68135 18.1329C8.6004 17.7957 9.42299 17.2388 10.0774 16.5107C10.7915 15.7161 11.2114 14.6657 11.8548 13.0556L11.8548 13.0556L11.8548 13.0556L11.9285 12.8714C12.6728 11.0107 12.9637 10.3229 13.4101 9.82619C13.8464 9.34079 14.3948 8.96951 15.0075 8.74473C15.6304 8.51621 16.3715 8.5002 18.3465 8.5L17.3051 9.54366L16.5988 10.2515L18.0146 11.6642L18.7209 10.9563L21.7079 7.96286L22.4127 7.25652L21.7079 6.55018L18.7079 3.54366ZM18.7079 13.7937L18.0015 13.0858L16.5858 14.4985L17.2921 15.2063L18.583 16.5H15.9526C15.8068 16.5 15.7525 16.4999 15.701 16.4985C14.8405 16.475 14.0105 16.1745 13.3344 15.6417C13.294 15.6098 13.2522 15.5751 13.1402 15.4818L11.8598 17.0182L11.8705 17.0271L11.8706 17.0272C11.9682 17.1085 12.0319 17.1617 12.0964 17.2125C13.1106 18.0118 14.3556 18.4625 15.6464 18.4978C15.7285 18.5 15.8115 18.5 15.9386 18.5H15.9526H18.596L17.3051 19.7937L16.5988 20.5015L18.0146 21.9142L18.7209 21.2063L21.7079 18.2129L22.4127 17.5065L21.7079 16.8002L18.7079 13.7937ZM6.04744 6.5L6.06142 6.5H6.06143C6.18849 6.5 6.2715 6.49999 6.35358 6.50224C7.64438 6.5375 8.88937 6.98824 9.90357 7.78751C9.96801 7.83829 10.0317 7.89139 10.1292 7.97263L10.1294 7.97276L10.1402 7.98178L8.85982 9.51822C8.74785 9.42492 8.70605 9.39019 8.66563 9.35834C7.9895 8.8255 7.15951 8.525 6.29897 8.50149C6.24753 8.50009 6.19319 8.5 6.04744 8.5H2V6.5H6.04744Z" fill="#0D131A"/>
</svg>
