<svg width="24" height="24" viewBox="0 0 24 24" fill="none" xmlns="http://www.w3.org/2000/svg">
<path fill-rule="evenodd" clip-rule="evenodd" d="M16.7071 18.7071L22.7071 12.7071L23.4142 12L22.7071 11.2929L16.7071 5.29289L15.2929 6.70711L19.6858 11.1H15V12.9H19.6858L15.2929 17.2929L16.7071 18.7071ZM9.5 12C9.5 12.6904 8.94036 13.25 8.25 13.25C7.55964 13.25 7 12.6904 7 12C7 11.3096 7.55964 10.75 8.25 10.75C8.94036 10.75 9.5 11.3096 9.5 12ZM12.25 13.25C12.9404 13.25 13.5 12.6904 13.5 12C13.5 11.3096 12.9404 10.75 12.25 10.75C11.5596 10.75 11 11.3096 11 12C11 12.6904 11.5596 13.25 12.25 13.25Z" fill="#0D131A"/>
</svg>
