<svg width="24" height="24" viewBox="0 0 24 24" fill="none" xmlns="http://www.w3.org/2000/svg">
<path fill-rule="evenodd" clip-rule="evenodd" d="M7.48054 7.23411C8.61609 5.70315 10.261 4.62795 12.1189 4.20216C13.9769 3.77636 15.9258 4.02795 17.6147 4.91161C19.3036 5.79528 20.6215 7.25294 21.3311 9.02208C22.0406 10.7912 22.0951 12.7556 21.4849 14.5614C20.8746 16.3671 19.6396 17.8957 18.0023 18.8717C16.365 19.8477 14.433 20.207 12.5543 19.885C10.6756 19.5629 8.97361 18.5807 7.75487 17.1151L6.21709 18.3938C7.74052 20.2258 9.86801 21.4537 12.2164 21.8562C14.5648 22.2588 16.9798 21.8096 19.0264 20.5896C21.073 19.3696 22.6167 17.4589 23.3796 15.2017C24.1424 12.9445 24.0743 10.489 23.1873 8.2776C22.3004 6.06617 20.653 4.24409 18.5419 3.13951C16.4308 2.03493 13.9946 1.72045 11.6721 2.25269C9.3497 2.78494 7.29361 4.12894 5.87418 6.04263C4.76809 7.53388 4.10524 9.2947 3.94439 11.1242L2.20865 9.06016L0.677956 10.3474L4.68555 15.1129L9.47392 11.1039L8.19001 9.57039L5.92368 11.4679C6.02525 9.94407 6.56175 8.47284 7.48054 7.23411ZM12.646 9.5C12.756 9.5 12.8688 9.525 12.9774 9.57929L16.4956 11.3371C17.0428 11.6107 17.0428 12.3893 16.4956 12.6625L12.9774 14.4207C12.8688 14.475 12.756 14.5 12.646 14.5C12.2578 14.5 11.906 14.1893 11.906 13.7621V10.2379C11.906 9.81072 12.2578 9.5 12.646 9.5Z" fill="currentColor"/>
</svg>
