<svg width="24" height="24" viewBox="0 0 24 24"  xmlns="http://www.w3.org/2000/svg">
<path fill-rule="evenodd" clip-rule="evenodd" d="M1 11C1 7.13401 4.13401 4 8 4H16C19.866 4 23 7.13401 23 11C23 12.933 22.2165 14.683 20.9497 15.9497L19.5355 14.5355C20.4404 13.6307 21 12.3807 21 11C21 8.23858 18.7614 6 16 6H8C5.23858 6 3 8.23858 3 11C3 13.7614 5.23858 16 8 16H12.583L11.2921 14.7063L10.5858 13.9985L12.0015 12.5858L12.7079 13.2937L15.7079 16.3002L16.4127 17.0065L15.7079 17.7129L12.7209 20.7063L12.0146 21.4142L10.5988 20.0015L11.3051 19.2937L12.596 18H8C4.13401 18 1 14.866 1 11Z" fill="currentColor"/>
</svg>
