<svg width="48" height="48" viewBox="0 0 48 48"  xmlns="http://www.w3.org/2000/svg">
<path fill-rule="evenodd" clip-rule="evenodd" d="M13.5337 12C12.6869 12 12 12.7212 12 13.6104V34.3896C12 35.2788 12.6869 36 13.5337 36H18.4663C19.3131 36 20 35.2788 20 34.3896V13.6104C20 12.7212 19.3131 12 18.4663 12H13.5337Z" fill="currentColor"/>
<path fill-rule="evenodd" clip-rule="evenodd" d="M29.5337 12C28.6869 12 28 12.7212 28 13.6104V34.3896C28 35.2788 28.6869 36 29.5337 36H34.4663C35.3131 36 36 35.2788 36 34.3896V13.6104C36 12.7212 35.3131 12 34.4663 12H29.5337Z" fill="currentColor"/>
</svg>
