<svg width="24" height="24" viewBox="0 0 24 24" fill="none" xmlns="http://www.w3.org/2000/svg">
<path fill-rule="evenodd" clip-rule="evenodd" d="M12.6678 7.10931C12.6678 4.8398 14.5076 3 16.7771 3C19.0466 3 20.8864 4.8398 20.8864 7.10931C20.8864 9.37882 19.0466 11.2186 16.7771 11.2186C14.5076 11.2186 12.6678 9.37882 12.6678 7.10931ZM16.7771 5C15.6121 5 14.6678 5.94437 14.6678 7.10931C14.6678 8.27425 15.6121 9.21862 16.7771 9.21862C17.942 9.21862 18.8864 8.27425 18.8864 7.10931C18.8864 5.94437 17.942 5 16.7771 5ZM7.10885 6.23076C6.23011 6.23076 5.51776 6.94312 5.51776 7.82185C5.51776 8.70059 6.23011 9.41295 7.10885 9.41295C7.98759 9.41295 8.69994 8.70059 8.69994 7.82185C8.69994 6.94312 7.98759 6.23076 7.10885 6.23076ZM3.51776 7.82185C3.51776 5.83855 5.12555 4.23076 7.10885 4.23076C9.09216 4.23076 10.6999 5.83855 10.6999 7.82185C10.6999 9.80516 9.09216 11.4129 7.10885 11.4129C5.12555 11.4129 3.51776 9.80516 3.51776 7.82185ZM3.00584 14.9279C3.84934 17.0431 5.54515 17.7692 6.92126 17.7692C7.9207 17.7692 9.06981 17.3837 9.94155 16.4069C9.88633 16.2839 9.83304 16.1581 9.78177 16.0295C9.63976 15.6731 9.58519 15.2581 9.63158 14.8462H3.00186C3.00096 14.8537 3.00036 14.8618 3.00014 14.8701C2.99968 14.8877 3.00101 14.9031 3.00299 14.9149C3.00428 14.9226 3.00584 14.9279 3.00584 14.9279ZM2.98473 12.8462C2.12277 12.8462 1.50264 13.3172 1.2063 13.9421C0.943399 14.4965 0.9409 15.1488 1.14734 15.6668C2.32921 18.6327 4.82631 19.7692 6.92126 19.7692C8.2571 19.7692 9.7711 19.309 11.0029 18.1763C12.5848 20.1896 14.8215 21 16.7669 21C19.2958 21 22.317 19.6306 23.7521 16.0295C23.9685 15.4864 24.0024 14.7535 23.7202 14.1115C23.5716 13.7732 23.3269 13.4445 22.9606 13.204C22.5923 12.9622 22.1571 12.8462 21.6876 12.8462H2.98473ZM11.8463 14.8462C11.7389 14.8462 11.7022 14.8705 11.6986 14.8729C11.6926 14.8768 11.6756 14.8893 11.6562 14.9302C11.635 14.9749 11.6177 15.0411 11.6156 15.1196C11.6135 15.1997 11.6282 15.2602 11.6397 15.2891C12.7361 18.0406 14.9566 19 16.7669 19C18.5773 19 20.7977 18.0406 21.8941 15.2891C21.9065 15.2581 21.9231 15.192 21.9231 15.1068C21.9231 15.0232 21.9072 14.957 21.8893 14.9162C21.881 14.8973 21.8738 14.8871 21.8701 14.8826C21.867 14.8788 21.865 14.8772 21.8628 14.8758C21.8608 14.8744 21.8509 14.8681 21.827 14.8615C21.8024 14.8546 21.7579 14.8462 21.6876 14.8462H11.8463Z" fill="#0D131A"/>
</svg>
