<svg width="24" height="24" viewBox="0 0 24 24" fill="none" xmlns="http://www.w3.org/2000/svg">
<path fill-rule="evenodd" clip-rule="evenodd" d="M11.1369 12.8447C10.2908 11.9986 10.2908 10.6267 11.1369 9.78057L14.7196 6.1979C15.5657 5.35176 16.9376 5.35176 17.7837 6.1979C18.6298 7.04403 18.6298 8.41589 17.7837 9.26203L16.4402 10.6055L17.8544 12.0197L19.1979 10.6762C20.8251 9.04905 20.8251 6.41087 19.1979 4.78368C17.5707 3.1565 14.9325 3.1565 13.3054 4.78368L9.72268 8.36636C8.0955 9.99354 8.0955 12.6317 9.72268 14.2589L11.1369 12.8447ZM12.9071 11.0713C13.7532 11.9174 13.7532 13.2893 12.9071 14.1354L9.3244 17.7181C8.47827 18.5642 7.10641 18.5642 6.26027 17.7181C5.41414 16.8719 5.41414 15.5001 6.26027 14.654L7.60378 13.3104L6.18956 11.8962L4.84606 13.2397C3.21888 14.8669 3.21888 17.5051 4.84606 19.1323C6.47324 20.7595 9.11143 20.7595 10.7386 19.1323L14.3213 15.5496C15.9485 13.9224 15.9485 11.2842 14.3213 9.65706L12.9071 11.0713Z" fill="currentColor"/>
</svg>
