<svg width="24" height="24" viewBox="0 0 24 24" fill="none" xmlns="http://www.w3.org/2000/svg">
	<path fill-rule="evenodd" clip-rule="evenodd"
		d="M3 6C3 4.34315 4.34315 3 6 3H18C19.6569 3 21 4.34315 21 6V9C21 10.1046 20.1046 11 19 11H5C3.89543 11 3 10.1046 3 9V6ZM6 5C5.44772 5 5 5.44772 5 6V9H19V6C19 5.44772 18.5523 5 18 5H6Z"
		fill="currentColor" />
	<path fill-rule="evenodd" clip-rule="evenodd"
		d="M3 18C3 19.6569 4.34315 21 6 21H9C10.1046 21 11 20.1046 11 19V15C11 13.8954 10.1046 13 9 13H5C3.89543 13 3 13.8954 3 15V18ZM6 19C5.44772 19 5 18.5523 5 18V15H9V19H6Z"
		fill="currentColor" />
	<path fill-rule="evenodd" clip-rule="evenodd"
		d="M21 18C21 19.6569 19.6569 21 18 21H15C13.8954 21 13 20.1046 13 19V15C13 13.8954 13.8954 13 15 13H19C20.1046 13 21 13.8954 21 15V18ZM18 19C18.5523 19 19 18.5523 19 18V15H15V19H18Z"
		fill="currentColor" />
</svg>