<svg width="24" height="24" viewBox="0 0 24 24"  xmlns="http://www.w3.org/2000/svg">
<path fill-rule="evenodd" clip-rule="evenodd" d="M12 1C7.338 0.999892 4.00002 4.96182 4.00002 9.47036V12.723L3.78259 13.0854C3.34536 13.8141 3.0342 14.6995 3.09956 15.569C3.17058 16.5138 3.68949 17.3621 4.7158 17.8044C6.292 18.4837 8.76287 19 12 19C15.1962 19 17.6316 18.4154 19.2 17.7328C20.1861 17.3037 20.7437 16.5086 20.8522 15.5722C20.9526 14.7054 20.6602 13.8234 20.2173 13.0853L19.9999 12.723L19.9997 9.22946V9.22942C19.9997 4.93392 16.5734 1.00011 12 1ZM6.00002 9.47036C6.00002 5.89532 8.6062 2.99992 12 3C15.357 3.00008 17.9997 5.9232 17.9997 9.22946V9.2295L17.9999 13C17.9999 13.1813 18.0492 13.3591 18.1424 13.5145L18.5023 14.1143C18.8055 14.6196 18.8985 15.0564 18.8654 15.3421C18.8404 15.5582 18.7455 15.7494 18.402 15.8989C17.1222 16.4558 14.965 17 12 17C8.94829 17 6.76458 16.5096 5.50736 15.9677C5.20211 15.8362 5.11228 15.6631 5.09394 15.4191C5.06994 15.0998 5.18881 14.629 5.49757 14.1144L5.85752 13.5145C5.95077 13.3591 6.00002 13.1812 6.00002 13V9.47036ZM10 22.0394L10.0001 21.9667C10.0001 21.9817 10.0003 21.9969 10.0007 22.0123C10.0003 22.0213 10 22.0303 10 22.0394ZM13.9994 21.9449C13.9807 22.6554 13.5304 24 12.0673 24C10.451 24 10.018 22.7392 10.0007 22.0123C10.027 21.4177 10.8754 21 12.0673 21C13.2594 21 13.9774 21.3522 13.9994 21.9449ZM13.9994 21.9449C13.9998 21.9305 14 21.9165 14 21.9027L13.9999 21.9731C13.9999 21.9637 13.9998 21.9542 13.9994 21.9449Z" fill="currentColor"/>
</svg>
