<svg width="24" height="24" viewBox="0 0 24 24" fill="none" xmlns="http://www.w3.org/2000/svg">
<path fill-rule="evenodd" clip-rule="evenodd" d="M4 7C4 4.23858 6.23858 2 9 2H15C17.7614 2 20 4.23858 20 7V22C20 22.3565 19.8102 22.686 19.5019 22.8649C19.1936 23.0438 18.8134 23.0451 18.5039 22.8682L12 19.1518L5.49614 22.8682C5.18664 23.0451 4.80639 23.0438 4.49807 22.8649C4.18976 22.686 4 22.3565 4 22V7ZM9 4C7.34315 4 6 5.34315 6 7V20.2768L11.5039 17.1318C11.8113 16.9561 12.1887 16.9561 12.4961 17.1318L18 20.2768V7C18 5.34315 16.6569 4 15 4H9Z" fill="#0D131A"/>
</svg>
