<svg width="24" height="24" viewBox="0 0 24 24" xmlns="http://www.w3.org/2000/svg">
<path fill-rule="evenodd" clip-rule="evenodd" d="M12 8.38418C11.3378 8.38418 10.7185 8.0564 10.3461 7.5088C9.73256 6.60647 8.67418 6 7.45455 6C5.50404 6 4 7.53452 4 9.33333C4 12.354 5.62925 14.5284 7.15487 15.8302C7.91912 16.4824 8.71888 16.9746 9.42845 17.3162L8.56099 19.1182C7.7103 18.7088 6.76308 18.1251 5.85663 17.3516C4.06148 15.8197 2 13.1366 2 9.33333C2 6.38781 4.44208 4 7.45455 4C8.61133 4 9.68401 4.3521 10.5666 4.95267C11.1316 5.33709 11.6186 5.82332 12 6.38418C12.3814 5.82332 12.8684 5.33709 13.4334 4.95267C14.316 4.3521 15.3887 4 16.5455 4C19.5579 4 22 6.38781 22 9.33333C22 13.0323 19.8045 15.6821 18.2656 17.0774C17.4278 17.837 16.5423 18.4527 15.7282 18.9058C15.3228 19.1315 14.868 19.3543 14.3869 19.5369C14.0699 19.6572 13.1473 20 12 20C11.0479 20 10.2607 19.7689 9.91211 19.659C9.44363 19.5111 8.98711 19.3234 8.56099 19.1182L9.42845 17.3162C9.78359 17.4871 10.1509 17.6371 10.5139 17.7516C10.7958 17.8406 11.353 18 12 18C12.7735 18 13.4185 17.7653 13.6771 17.6671C14.0479 17.5263 14.4139 17.3484 14.7555 17.1583C15.4413 16.7766 16.2016 16.2491 16.9222 15.5958C18.2865 14.3588 20 12.2067 20 9.33333C20 7.53452 18.496 6 16.5455 6C15.3258 6 14.2674 6.60647 13.6539 7.5088C13.2815 8.0564 12.6622 8.38418 12 8.38418Z" fill="currentColor"/>
</svg>
