<svg width="24" height="24" viewBox="0 0 24 24" fill="none" xmlns="http://www.w3.org/2000/svg">
<path fill-rule="evenodd" clip-rule="evenodd" d="M10.5 3C6.35786 3 3 6.35786 3 10.5C3 14.6421 6.35786 18 10.5 18C14.6421 18 18 14.6421 18 10.5C18 6.35786 14.6421 3 10.5 3ZM5 10.5C5 7.46243 7.46243 5 10.5 5C13.5376 5 16 7.46243 16 10.5C16 13.5376 13.5376 16 10.5 16C7.46243 16 5 13.5376 5 10.5ZM20.8699 18.8698L19.5 17.5C18.8098 16.8098 17.0947 15.9985 16.5466 16.5466C15.9899 17.1032 16.9609 18.8308 17.6302 19.5L19 20.8698C19.5858 21.4556 20.2841 21.4556 20.8699 20.8698C21.4556 20.284 21.4557 19.4556 20.8699 18.8698Z" fill="#0D131A"/>
</svg>
