<svg width="24" height="24" viewBox="0 0 24 24" fill="none" xmlns="http://www.w3.org/2000/svg">
<path fill-rule="evenodd" clip-rule="evenodd" d="M16 13C16 14.6569 14.6569 16 13 16V18C14.6569 18 16 19.3431 16 21H18C18 19.3431 19.3431 18 21 18V16C19.3431 16 18 14.6569 18 13H16ZM17.9995 17C17.6211 16.7157 17.2843 16.3789 17 16.0005C16.7157 16.3789 16.3789 16.7157 16.0005 17C16.3789 17.2843 16.7157 17.6211 17 17.9995C17.2843 17.6211 17.6211 17.2843 17.9995 17Z" fill="currentColor"/>
<path fill-rule="evenodd" clip-rule="evenodd" d="M8 3C8 5.76142 5.76142 8 3 8V10C5.76142 10 8 12.2386 8 15H10C10 12.2386 12.2386 10 15 10V8C12.2386 8 10 5.76142 10 3H8ZM11.3924 9C10.4131 8.40992 9.59008 7.58687 9 6.60758C8.40992 7.58687 7.58687 8.40992 6.60758 9C7.58687 9.59008 8.40992 10.4131 9 11.3924C9.59008 10.4131 10.4131 9.59008 11.3924 9Z" fill="currentColor"/>
<path d="M17 5H19V7H17V5Z" fill="currentColor"/>
<path d="M4 19H6V21H4V19Z" fill="currentColor"/>
</svg>
