<svg width="24" height="24" viewBox="0 0 24 24" fill="none" xmlns="http://www.w3.org/2000/svg">
<path fill-rule="evenodd" clip-rule="evenodd" d="M14.3891 1.75304L14.392 2.92223C14.3963 4.86414 15.2763 6.18338 16.8542 7.31331C19.4113 9.14443 20.5284 11.725 20.5284 14.4884C20.5284 18.9066 16.9467 22.4884 12.5284 22.4884C8.20576 22.4884 4 18.9977 4 14.4884C4 11.867 5.13282 9.72214 7.07153 8.34221C7.78492 7.83444 8.55045 8.13291 8.94351 8.51124C9.32309 8.8766 9.59555 9.50673 9.391 10.1733C9.14331 10.9803 9.06029 11.7721 9.16355 12.2497C9.30306 12.8949 9.91999 13.3286 10.6629 13.3286C10.9299 13.3286 11.2758 13.2308 11.5347 13.0257C11.7598 12.8473 11.9481 12.5701 11.9481 12.0832C11.9481 11.6212 11.812 11.4506 11.381 10.92C10.9062 10.3354 10.3053 9.55308 10.0127 8.04684C9.79354 6.91894 9.87388 5.64042 10.3421 4.5223C10.6061 3.89179 10.9995 3.30291 11.5345 2.83225C12.3751 2.09285 13.3034 1.83789 14.3891 1.75304ZM12.1869 5.2948C11.8892 6.00562 11.8228 6.87719 11.976 7.66539C12.1794 8.71265 12.5554 9.19363 12.9335 9.65908C12.9528 9.6829 12.9725 9.70703 12.9925 9.73151C13.4084 10.2408 13.9481 10.9015 13.9481 12.0832C13.9481 13.2059 13.4607 14.0513 12.7767 14.5933C12.1264 15.1085 11.3298 15.3286 10.6629 15.3286C9.21992 15.3286 7.59418 14.4551 7.20872 12.6723C7.09348 12.1393 7.09979 11.5414 7.17712 10.9545C6.42593 11.8782 6 13.0647 6 14.4884C6 17.711 9.11904 20.4884 12.5284 20.4884C15.8421 20.4884 18.5284 17.8021 18.5284 14.4884C18.5284 12.3152 17.6794 10.3641 15.6898 8.93937C14.162 7.84533 13.0168 6.4697 12.5825 4.61945C12.4236 4.81668 12.2921 5.04349 12.1869 5.2948Z" fill="#0D131A"/>
</svg>
