<svg width="24" height="24" viewBox="0 0 24 24"  xmlns="http://www.w3.org/2000/svg">
<path fill-rule="evenodd" clip-rule="evenodd" d="M6.76686 6C6.34343 6 6 6.3606 6 6.8052V17.1948C6 17.6394 6.34343 18 6.76686 18H9.23314C9.65657 18 10 17.6394 10 17.1948V6.8052C10 6.3606 9.65657 6 9.23314 6H6.76686Z" fill="currentColor"/>
<path fill-rule="evenodd" clip-rule="evenodd" d="M14.7669 6C14.3434 6 14 6.3606 14 6.8052V17.1948C14 17.6394 14.3434 18 14.7669 18H17.2331C17.6566 18 18 17.6394 18 17.1948V6.8052C18 6.3606 17.6566 6 17.2331 6H14.7669Z" fill="currentColor"/>
</svg>
