<svg width="24" height="24" viewBox="0 0 24 24"  xmlns="http://www.w3.org/2000/svg">
<path fill-rule="evenodd" clip-rule="evenodd" d="M8 4C4.13401 4 1 7.13401 1 11C1 14.866 4.13401 18 8 18H12.596L11.3051 19.2937L10.5988 20.0015L12.0146 21.4142L12.7209 20.7063L15.7079 17.7129L16.4127 17.0065L15.7079 16.3002L12.7079 13.2937L12.0015 12.5858L10.5858 13.9985L11.2921 14.7063L12.583 16H8C5.23858 16 3 13.7614 3 11C3 8.23858 5.23858 6 8 6H16C18.7614 6 21 8.23858 21 11H23C23 7.13401 19.866 4 16 4H8ZM20 17C21.1046 17 22 16.1046 22 15C22 13.8954 21.1046 13 20 13C18.8954 13 18 13.8954 18 15C18 16.1046 18.8954 17 20 17Z" fill="currentColor"/>
</svg>
