<svg width="24" height="24" viewBox="0 0 24 24" fill="none" xmlns="http://www.w3.org/2000/svg">
<mask id="path-1-inside-1_2650_668" fill="white">
<path fill-rule="evenodd" clip-rule="evenodd" d="M10.5 3H10L9.98687 3.01385C7.65429 3.13994 5.44276 4.12221 3.78248 5.78249C2.00089 7.56408 1 9.98044 1 12.5C1 15.0196 2.00089 17.4359 3.78249 19.2175C5.56408 20.9991 7.98044 22 10.5 22V19H15C19.4183 19 23 15.4183 23 11C23 6.58172 19.4183 3 15 3H12H10.5Z"/>
</mask>
<path d="M10 3V1H9.13973L8.54809 1.62452L10 3ZM9.98687 3.01385L10.0948 5.01094L10.8907 4.96792L11.4388 4.38934L9.98687 3.01385ZM3.78248 5.78249L2.36827 4.36827L2.36827 4.36827L3.78248 5.78249ZM10.5 22V24H12.5V22H10.5ZM10.5 19V17H8.5V19H10.5ZM10 5H10.5V1H10V5ZM11.4388 4.38934L11.4519 4.37548L8.54809 1.62452L8.53496 1.63837L11.4388 4.38934ZM5.1967 7.1967C6.50742 5.88598 8.25339 5.11047 10.0948 5.01094L9.87893 1.01677C7.05519 1.1694 4.3781 2.35845 2.36827 4.36827L5.1967 7.1967ZM3 12.5C3 10.5109 3.79018 8.60322 5.1967 7.1967L2.36827 4.36827C0.211603 6.52494 -1 9.45001 -1 12.5H3ZM5.1967 17.8033C3.79018 16.3968 3 14.4891 3 12.5H-1C-1 15.55 0.211604 18.4751 2.36827 20.6317L5.1967 17.8033ZM10.5 20C8.51088 20 6.60322 19.2098 5.1967 17.8033L2.36827 20.6317C4.52494 22.7884 7.45001 24 10.5 24V20ZM8.5 19V22H12.5V19H8.5ZM15 17H10.5V21H15V17ZM21 11C21 14.3137 18.3137 17 15 17V21C20.5228 21 25 16.5228 25 11H21ZM15 5C18.3137 5 21 7.68629 21 11H25C25 5.47715 20.5228 1 15 1V5ZM12 5H15V1H12V5ZM10.5 5H12V1H10.5V5Z" fill="currentColor" mask="url(#path-1-inside-1_2650_668)"/>
</svg>
