<svg width="24" height="24" viewBox="0 0 24 24" fill="none" xmlns="http://www.w3.org/2000/svg">
<path fill-rule="evenodd" clip-rule="evenodd" d="M22 12C22 17.5228 17.5228 22 12 22C6.47715 22 2 17.5228 2 12C2 6.47715 6.47715 2 12 2C17.5228 2 22 6.47715 22 12ZM8.38058 11.5431C8.87828 10.0501 10.0499 8.87851 11.5429 8.38087L15.3807 7.10169C16.3188 6.789 17.2113 7.6815 16.8986 8.61961L15.6194 12.4569C15.1217 13.9499 13.9501 15.1215 12.457 15.6191L8.61926 16.8983C7.68115 17.211 6.78867 16.3185 7.1014 15.3804L8.38058 11.5431ZM12 13.5C12.8284 13.5 13.5 12.8284 13.5 12C13.5 11.1716 12.8284 10.5 12 10.5C11.1716 10.5 10.5 11.1716 10.5 12C10.5 12.8284 11.1716 13.5 12 13.5Z" fill="currentColor"/>
</svg>
