<svg width="28" height="28" viewBox="0 0 28 28" fill="none" xmlns="http://www.w3.org/2000/svg">
<path fill-rule="evenodd" clip-rule="evenodd" d="M14 8.38418C13.0228 6.94712 11.3518 6 9.45455 6C6.44208 6 4 8.38781 4 11.3333C4 15.1366 6.06148 17.8197 7.85663 19.3516C8.76308 20.1251 9.7103 20.7088 10.561 21.1182C10.9871 21.3234 11.4436 21.5111 11.9121 21.659C12.2607 21.7689 13.0479 22 14 22C15.1473 22 16.0699 21.6572 16.3869 21.5369C16.868 21.3543 17.3228 21.1315 17.7282 20.9058C18.5423 20.4527 19.4278 19.837 20.2656 19.0774C21.8045 17.6821 24 15.0323 24 11.3333C24 8.38781 21.5579 6 18.5455 6C16.6482 6 14.9772 6.94712 14 8.38418Z" fill="currentColor"/>
</svg>
