<svg width="28" height="28" viewBox="0 0 28 28" fill="none" xmlns="http://www.w3.org/2000/svg">
<path fill-rule="evenodd" clip-rule="evenodd" d="M8 7H20C20.5523 7 21 7.44772 21 8V11H7L7 8C7 7.44772 7.44772 7 8 7ZM5 8C5 6.34315 6.34315 5 8 5H20C21.6569 5 23 6.34315 23 8V11C23 12.1046 22.1046 13 21 13H7C5.89543 13 5 12.1046 5 11V8ZM7 17H21V20C21 20.5523 20.5523 21 20 21H8C7.44772 21 7 20.5523 7 20V17ZM5 17C5 15.8954 5.89543 15 7 15H21C22.1046 15 23 15.8954 23 17V20C23 21.6569 21.6569 23 20 23H8C6.34315 23 5 21.6569 5 20V17Z" fill="#757B80"/>
</svg>
