<svg width="24" height="24" viewBox="0 0 24 24" fill="none" xmlns="http://www.w3.org/2000/svg">
<path fill-rule="evenodd" clip-rule="evenodd" d="M6 5H18C18.5523 5 19 5.44772 19 6V14C19 14.5523 18.5523 15 18 15H6C5.44772 15 5 14.5523 5 14V6C5 5.44772 5.44772 5 6 5ZM3 6C3 4.34315 4.34315 3 6 3H18C19.6569 3 21 4.34315 21 6V14C21 15.6569 19.6569 17 18 17H6C4.34315 17 3 15.6569 3 14V6ZM6.8 19C6.35817 19 6 19.3582 6 19.8C6 20.4627 6.53726 21 7.2 21H16.8C17.4627 21 18 20.4627 18 19.8C18 19.3582 17.6418 19 17.2 19H6.8Z" fill="#757B80"/>
</svg>
