<svg width="24" height="24" viewBox="0 0 24 24" fill="none" xmlns="http://www.w3.org/2000/svg">
<path fill-rule="evenodd" clip-rule="evenodd" d="M20 12C20 16.4183 16.4183 20 12 20C7.58172 20 4 16.4183 4 12C4 7.58172 7.58172 4 12 4C16.4183 4 20 7.58172 20 12ZM12 22C17.5228 22 22 17.5228 22 12C22 6.47715 17.5228 2 12 2C6.47715 2 2 6.47715 2 12C2 17.5228 6.47715 22 12 22ZM12.1753 10.2782L14.4952 9.50499L13.722 11.8244C13.4234 12.7202 12.7204 13.4232 11.8246 13.7217L9.50473 14.495L10.2779 12.1756C10.5765 11.2798 11.2795 10.5768 12.1753 10.2782ZM8.38056 11.5431C8.87827 10.0501 10.0499 8.8785 11.5429 8.38085L15.3807 7.10167C16.3188 6.78899 17.2113 7.68149 16.8985 8.61959L15.6194 12.4569C15.1217 13.9499 13.9501 15.1215 12.457 15.6191L8.61925 16.8983C7.68113 17.211 6.78866 16.3185 7.10138 15.3804L8.38056 11.5431Z" fill="currentColor"/>
</svg>
