<svg width="28" height="28" viewBox="0 0 28 28" fill="none" xmlns="http://www.w3.org/2000/svg">
<path fill-rule="evenodd" clip-rule="evenodd" d="M24 14C24 19.5228 19.5228 24 14 24C8.47715 24 4 19.5228 4 14C4 8.47715 8.47715 4 14 4C19.5228 4 24 8.47715 24 14ZM10.3806 13.5431C10.8783 12.0501 12.0499 10.8785 13.5429 10.3809L17.3807 9.10169C18.3188 8.789 19.2113 9.6815 18.8986 10.6196L17.6194 14.4569C17.1217 15.9499 15.9501 17.1215 14.457 17.6191L10.6193 18.8983C9.68115 19.211 8.78868 18.3185 9.1014 17.3804L10.3806 13.5431ZM14 15.5C14.8284 15.5 15.5 14.8284 15.5 14C15.5 13.1716 14.8284 12.5 14 12.5C13.1716 12.5 12.5 13.1716 12.5 14C12.5 14.8284 13.1716 15.5 14 15.5Z" fill="currentColor"/>
</svg>
