<svg width="28" height="28" viewBox="0 0 28 28"  xmlns="http://www.w3.org/2000/svg">
<path fill-rule="evenodd" clip-rule="evenodd" d="M14 10.3842C13.3378 10.3842 12.7185 10.0564 12.3461 9.5088C11.7326 8.60647 10.6742 8 9.45455 8C7.50404 8 6 9.53452 6 11.3333C6 14.354 7.62925 16.5284 9.15487 17.8302C9.91912 18.4824 10.7189 18.9746 11.4284 19.3162L10.561 21.1182C9.7103 20.7088 8.76308 20.1251 7.85663 19.3516C6.06148 17.8197 4 15.1366 4 11.3333C4 8.38781 6.44208 6 9.45455 6C10.6113 6 11.684 6.3521 12.5666 6.95267C13.1316 7.33709 13.6186 7.82332 14 8.38418C14.3814 7.82332 14.8684 7.33709 15.4334 6.95267C16.316 6.3521 17.3887 6 18.5455 6C21.5579 6 24 8.38781 24 11.3333C24 15.0323 21.8045 17.6821 20.2656 19.0774C19.4278 19.837 18.5423 20.4527 17.7282 20.9058C17.3228 21.1315 16.868 21.3543 16.3869 21.5369C16.0699 21.6572 15.1473 22 14 22C13.0479 22 12.2607 21.7689 11.9121 21.659C11.4436 21.5111 10.9871 21.3234 10.561 21.1182L11.4285 19.3162C11.7836 19.4871 12.1509 19.6371 12.5139 19.7516C12.7958 19.8406 13.353 20 14 20C14.7735 20 15.4185 19.7653 15.6771 19.6671C16.0479 19.5263 16.4139 19.3484 16.7555 19.1583C17.4413 18.7766 18.2016 18.2491 18.9222 17.5958C20.2865 16.3588 22 14.2067 22 11.3333C22 9.53452 20.496 8 18.5455 8C17.3258 8 16.2674 8.60647 15.6539 9.5088C15.2815 10.0564 14.6622 10.3842 14 10.3842Z" fill="currentColor"/>
</svg>
