<svg width="28" height="28" viewBox="0 0 28 28"  xmlns="http://www.w3.org/2000/svg">
<path fill-rule="evenodd" clip-rule="evenodd" d="M22 14C22 18.4183 18.4183 22 14 22C9.58172 22 6 18.4183 6 14C6 9.58172 9.58172 6 14 6C18.4183 6 22 9.58172 22 14ZM14 24C19.5228 24 24 19.5228 24 14C24 8.47715 19.5228 4 14 4C8.47715 4 4 8.47715 4 14C4 19.5228 8.47715 24 14 24ZM14.1753 12.2782L16.4952 11.505L15.722 13.8244C15.4234 14.7202 14.7204 15.4232 13.8246 15.7217L11.5047 16.495L12.2779 14.1756C12.5765 13.2798 13.2795 12.5768 14.1753 12.2782ZM10.3806 13.5431C10.8783 12.0501 12.0499 10.8785 13.5429 10.3809L17.3807 9.10167C18.3188 8.78899 19.2113 9.68149 18.8985 10.6196L17.6194 14.4569C17.1217 15.9499 15.9501 17.1215 14.457 17.6191L10.6192 18.8983C9.68113 19.211 8.78866 18.3185 9.10138 17.3804L10.3806 13.5431Z" fill="currentColor"/>
</svg>
