<svg width="24" height="24" viewBox="0 0 24 24" fill="none" xmlns="http://www.w3.org/2000/svg">
<path fill-rule="evenodd" clip-rule="evenodd" d="M12 12C14.7614 12 17 9.76142 17 7C17 4.23858 14.7614 2 12 2C9.23858 2 7 4.23858 7 7C7 9.76142 9.23858 12 12 12ZM12 10C13.6569 10 15 8.65685 15 7C15 5.34315 13.6569 4 12 4C10.3431 4 9 5.34315 9 7C9 8.65685 10.3431 10 12 10ZM5.23953 16C6.76077 18.6942 9.53684 19.75 11.9966 19.75C14.4563 19.75 17.2324 18.6942 18.7536 16H5.23953ZM4.70798 16.0071C4.70797 16.007 4.7085 16.0069 4.7096 16.0067L4.70798 16.0071ZM19.325 16.0109C19.325 16.0109 19.3243 16.0108 19.3229 16.0103L19.325 16.0109ZM3.1394 16.2834C4.99053 20.2836 8.82353 21.75 11.9966 21.75C15.1696 21.75 19.0026 20.2836 20.8537 16.2834C21.225 15.4811 20.9644 14 19.193 14H4.80012C3.13942 14 2.74932 15.4405 3.1394 16.2834Z" fill="currentColor"/>
</svg>
