<svg width="24" height="24" viewBox="0 0 24 24" fill="none" xmlns="http://www.w3.org/2000/svg">
<path fill-rule="evenodd" clip-rule="evenodd" d="M6 5H18C18.5523 5 19 5.44772 19 6V9H5L5 6C5 5.44772 5.44772 5 6 5ZM3 6C3 4.34315 4.34315 3 6 3H18C19.6569 3 21 4.34315 21 6V9C21 10.1046 20.1046 11 19 11H5C3.89543 11 3 10.1046 3 9V6ZM5 15H19V18C19 18.5523 18.5523 19 18 19H6C5.44772 19 5 18.5523 5 18V15ZM3 15C3 13.8954 3.89543 13 5 13H19C20.1046 13 21 13.8954 21 15V18C21 19.6569 19.6569 21 18 21H6C4.34315 21 3 19.6569 3 18V15Z" fill="currentColor"/>
</svg>
