<svg width="28" height="28" viewBox="0 0 28 28" fill="none" xmlns="http://www.w3.org/2000/svg">
<path fill-rule="evenodd" clip-rule="evenodd" d="M18 12.5C18 15.5376 15.5376 18 12.5 18C9.46243 18 7 15.5376 7 12.5C7 9.46243 9.46243 7 12.5 7C15.5376 7 18 9.46243 18 12.5ZM12.5 20C16.6421 20 20 16.6421 20 12.5C20 8.35786 16.6421 5 12.5 5C8.35786 5 5 8.35786 5 12.5C5 16.6421 8.35786 20 12.5 20ZM22.8698 20.8698L21.5 19.5C20.8098 18.8098 19.0946 17.9985 18.5466 18.5466C17.9898 19.1032 18.8307 20.8307 19.5 21.5L20.8699 22.8698C21.4556 23.4556 22.284 23.4556 22.8698 22.8698C23.4556 22.284 23.4556 21.4556 22.8698 20.8698Z" fill="#757B80"/>
</svg>
