<svg width="28" height="28" viewBox="0 0 28 28"  xmlns="http://www.w3.org/2000/svg">
<path fill-rule="evenodd" clip-rule="evenodd" d="M14 14C16.7614 14 19 11.7614 19 9C19 6.23858 16.7614 4 14 4C11.2386 4 9 6.23858 9 9C9 11.7614 11.2386 14 14 14ZM14 12C15.6569 12 17 10.6569 17 9C17 7.34315 15.6569 6 14 6C12.3431 6 11 7.34315 11 9C11 10.6569 12.3431 12 14 12ZM7.23953 18C8.76077 20.6942 11.5368 21.75 13.9966 21.75C16.4563 21.75 19.2324 20.6942 20.7536 18H7.23953ZM6.70798 18.0071C6.70797 18.007 6.7085 18.0069 6.7096 18.0067L6.70798 18.0071ZM21.325 18.0109C21.325 18.0109 21.3243 18.0108 21.3229 18.0103L21.325 18.0109ZM5.1394 18.2834C6.99053 22.2836 10.8235 23.75 13.9966 23.75C17.1696 23.75 21.0026 22.2836 22.8537 18.2834C23.225 17.4811 22.9644 16 21.193 16H6.80012C5.13942 16 4.74932 17.4405 5.1394 18.2834Z" fill="currentColor"/>
</svg>
