<svg width="24" height="24" viewBox="0 0 24 24"  xmlns="http://www.w3.org/2000/svg">
<path fill-rule="evenodd" clip-rule="evenodd" d="M12 6.38418C11.0228 4.94712 9.35179 4 7.45455 4C4.44208 4 2 6.38781 2 9.33333C2 13.1366 4.06148 15.8197 5.85663 17.3516C6.76308 18.1251 7.7103 18.7088 8.56099 19.1182C8.98711 19.3234 9.44363 19.5111 9.91211 19.659C10.2607 19.7689 11.0479 20 12 20C13.1473 20 14.0699 19.6572 14.3869 19.5369C14.868 19.3543 15.3228 19.1315 15.7282 18.9058C16.5423 18.4527 17.4278 17.837 18.2656 17.0774C19.8045 15.6821 22 13.0323 22 9.33333C22 6.38781 19.5579 4 16.5455 4C14.6482 4 12.9772 4.94712 12 6.38418Z" fill="currentColor"/>
</svg>
