<svg width="28" height="28" viewBox="0 0 28 28" fill="none" xmlns="http://www.w3.org/2000/svg">
<path fill-rule="evenodd" clip-rule="evenodd" d="M8 7H20C20.5523 7 21 7.44772 21 8V16C21 16.5523 20.5523 17 20 17H8C7.44772 17 7 16.5523 7 16V8C7 7.44772 7.44772 7 8 7ZM5 8C5 6.34315 6.34315 5 8 5H20C21.6569 5 23 6.34315 23 8V16C23 17.6569 21.6569 19 20 19H8C6.34315 19 5 17.6569 5 16V8ZM8.8 21C8.35817 21 8 21.3582 8 21.8C8 22.4627 8.53726 23 9.2 23H18.8C19.4627 23 20 22.4627 20 21.8C20 21.3582 19.6418 21 19.2 21H8.8Z" fill="currentColor"/>
</svg>
